<?xml version="1.0" encoding="utf-8"?>
<!-- Svg Vector Icons : http://www.onlinewebfonts.com/icon -->
<!DOCTYPE svg PUBLIC "-//W3C//DTD SVG 1.1//EN" "http://www.w3.org/Graphics/SVG/1.1/DTD/svg11.dtd">
<svg version="1.1" xmlns="http://www.w3.org/2000/svg" xmlns:xlink="http://www.w3.org/1999/xlink" x="0px" y="0px" viewBox="0 0 1000 1000" enable-background="new 0 0 65 65" xml:space="preserve">
<metadata> Svg Vector Icons : http://www.onlinewebfonts.com/icon </metadata>
<g><g fill="#5e5e5e"><path d="M940.7,398.3l-93.8-18.8c-4.7-13.6-10.3-26.7-16.4-39.5l53.1-79.7c16.2-24.3,13-56.7-7.7-77.3L817,124.1c-11.8-11.9-27.5-17.9-43.4-17.9c-11.7,0-23.6,3.4-33.9,10.3L660,169.5c-12.8-6.2-26-11.7-39.5-16.4l-18.8-93.9C596,30.6,570.8,10,541.6,10h-83.3c-29.2,0-54.3,20.6-60.1,49.2l-18.8,93.9c-13.6,4.7-26.7,10.3-39.5,16.4l-79.7-53.1c-10.4-6.9-22.2-10.3-34-10.3c-15.8,0-31.5,6.1-43.3,17.9L124.1,183c-20.6,20.6-23.9,53-7.7,77.3l53.1,79.7c-6.2,12.8-11.7,25.9-16.4,39.5l-93.9,18.8C30.6,404,10,429.1,10,458.3v83.3c0,29.2,20.6,54.4,49.2,60.1l93.9,18.8c4.7,13.5,10.3,26.7,16.4,39.5l-53.1,79.7c-16.2,24.3-13,56.6,7.7,77.3L183,876c11.9,11.8,27.5,17.9,43.4,17.9c11.8,0,23.6-3.4,33.9-10.3l79.7-53.2c12.8,6.2,26,11.7,39.5,16.4l18.8,93.9c5.7,28.7,30.9,49.3,60.1,49.3h83.3c29.2,0,54.4-20.6,60.1-49.3l18.8-93.9c13.6-4.7,26.7-10.3,39.5-16.4l79.8,53.2c10.3,6.9,22.2,10.3,33.9,10.3c15.9,0,31.5-6.1,43.4-17.9l58.9-58.9c20.7-20.6,23.9-53,7.7-77.3L830.4,660c6.2-12.8,11.7-26,16.5-39.5l93.8-18.8c28.6-5.7,49.3-30.9,49.3-60.1v-83.3C990,429.1,969.4,404,940.7,398.3z M838.6,562.9c-21.3,4.2-38.7,19.4-45.8,40c-3.9,11.3-8.5,22.3-13.7,32.9c-9.5,19.6-7.9,42.7,4.1,60.7l55.7,81L780,836.4L694,787c-10.2-6.8-22.1-10.3-34-10.3c-9.1,0-18.2,2-26.7,6.1c-10.6,5.2-21.6,9.8-33,13.8c-20.5,7.1-35.6,24.5-39.9,45.8l-18.8,92.7h-83.3l-18.8-92.7c-4.2-21.3-19.4-38.7-40-45.8c-11.3-3.9-22.3-8.5-32.9-13.7c-8.5-4.2-17.6-6.2-26.7-6.2c-11.9,0-23.7,3.4-33.9,10.3l-83.5,49.4l-58.9-58.9l56.9-83.5c12.1-18.1,13.6-41.2,4.2-60.7c-5.1-10.6-9.8-21.6-13.7-33c-7.1-20.5-24.6-35.7-45.8-39.9L63.8,541.6l-0.1-83.3l93.9-18.8c21.2-4.2,38.7-19.4,45.8-39.9c3.9-11.3,8.5-22.3,13.7-32.9c9.5-19.5,7.9-42.6-4.2-60.7l-49.3-83.5l58.9-58.9l86,45.6c10.2,6.8,22.1,10.3,34,10.3c9.1,0,18.2-2,26.7-6.1c10.6-5.1,21.6-9.8,32.9-13.7c20.5-7.1,35.7-24.6,40-45.8l16.3-90.1l83.3,0l22.5,97.7c4.2,21.3,19.4,38.7,40,45.8c11.3,3.9,22.2,8.5,32.9,13.7c8.5,4.1,17.6,6.1,26.7,6.1c11.9,0,23.7-3.5,33.9-10.3l76-49.4l58.9,58.9l-49.4,76c-12,18.1-13.6,41.1-4.2,60.6c5.1,10.6,9.8,21.6,13.8,32.9c7.1,20.5,24.5,35.7,45.8,39.9l96.3,22.6l0.1,83.3L838.6,562.9z"/><path d="M500,312.4c-103.6,0-187.6,84-187.6,187.6s84,187.6,187.6,187.6c103.5,0,187.6-84,187.6-187.6C687.6,396.4,603.5,312.4,500,312.4z M500,633.1c-70.8,0-133.1-62.4-133.1-133.2c0-70.8,62.4-133.2,133.1-133.2c70.8,0,133.1,62.4,133.1,133.2C633.1,570.7,570.8,633.1,500,633.1z"/></g></g>

</svg>